<svg width="37" height="160" viewBox="0 0 37 160" fill="none" xmlns="http://www.w3.org/2000/svg">
<path d="M12.3233 126.688C14.8532 104.713 15.6219 82.5779 14.6224 60.4852C14.2638 40.8143 15.2264 21.1415 17.5039 1.59489C17.5039 1.02314 18.117 0.511567 19.0673 0C21.2131 20.4326 19.0673 40.9253 20.5387 61.2977C21.7579 82.3789 21.0912 103.524 18.5462 124.491C23.3283 121.091 26.455 118.473 29.827 116.487C34.2412 113.688 35.1916 114.2 37.0615 120.098C35.5594 121.031 33.9961 121.994 32.3714 123.107C25.2289 127.741 20.3548 133.549 21.2131 142.637C21.5809 146.459 21.6116 150.31 21.6423 154.132C21.6729 157.954 20.0482 160.361 17.1974 160.15C14.3465 159.94 13.8254 157.502 13.3655 155.035C11.3423 143.991 9.62574 132.797 2.02342 123.649C1.1833 122.792 0.544925 121.765 0.15345 120.639C-0.0917863 119.646 0.153431 117.63 0.613249 117.63C1.23076 117.418 1.88795 117.341 2.53907 117.403C3.1902 117.465 3.81968 117.666 4.38379 117.991C6.8668 120.098 9.04326 122.806 12.3233 126.688Z" fill="#E40000"/>
</svg>
