<svg width="109" height="79" viewBox="0 0 109 79" fill="none" xmlns="http://www.w3.org/2000/svg">
<path d="M87.8357 78.8243C82.869 77.209 86.1244 73.9101 86.4237 71.0651C85.2669 70.9901 84.1071 70.9736 82.9486 71.0158C69.5752 72.2403 56.4809 70.3091 43.577 67.0481C40.0407 66.2898 36.3817 66.3053 32.8516 67.0934C24.5885 68.4157 16.1009 68.4355 7.69806 68.9523C6.60113 68.9435 5.50589 68.8648 4.419 68.7169C1.24591 68.5091 1.18842 68.4262 0.943196 64.161C11.3329 65.2044 21.8121 64.9649 32.1437 63.4479C29.4289 61.4941 27.4349 59.9436 25.3302 58.5565C12.287 50.0007 6.91256 26.8324 18.9339 12.6796C21.0067 10.1025 23.2214 7.64251 25.5677 5.3109C30.0617 1.04665 35.7687 0.186724 41.6728 0.215204C43.4126 0.300536 45.1141 0.756043 46.6632 1.55115C48.2123 2.34626 49.5733 3.46263 50.6552 4.82559C55.0523 9.3082 57.8695 15.0976 58.6817 21.3199C59.3091 26.912 60.3398 32.5643 59.1488 38.2238C57.1562 47.8011 53.2854 56.271 44.8605 62.0066C44.3127 62.3892 43.8248 62.8893 42.7613 63.8777C59.9892 68.7424 78.0818 69.7448 95.7445 66.8134L86.6489 60.4771L88.7761 58.2402C89.2711 58.273 89.7605 58.363 90.2346 58.5084C95.2052 61.7701 100.142 65.0514 106.316 65.4782C106.827 65.5823 107.304 65.8115 107.705 66.1452C108.105 66.4789 108.417 66.9067 108.611 67.3902C108.933 68.8597 107.837 69.3477 106.299 69.4487C104.296 69.6938 102.314 70.0846 100.369 70.6179C98.6585 71.0075 96.9481 71.397 95.2445 71.8902C93.8827 72.1439 92.6194 72.7736 91.5976 73.7076C90.5758 74.6417 89.8365 75.8428 89.4634 77.1749C89.3302 77.7903 88.4228 78.2485 87.8357 78.8243ZM15.4939 34.5891C16.0349 47.3281 23.6856 55.7179 35.5421 61.0063C36.2882 61.3548 37.1105 61.5093 37.9325 61.4553C38.7546 61.4014 39.5496 61.1408 40.2437 60.6977C46.2544 57.5281 50.9169 52.2979 53.3731 45.9694C56.3713 38.7527 56.4787 31.3964 55.6139 23.7746C55.1678 17.8205 52.7588 12.182 48.7634 7.74037C47.287 5.93774 45.2756 4.64965 43.0189 4.06151C37.626 3.35815 31.9621 3.81655 27.6243 7.55055C19.9622 14.328 14.71 22.646 15.6149 34.5812L15.4939 34.5891Z" fill="#FFF7E7"/>
</svg>
