<svg width="275" height="161" viewBox="0 0 275 161" fill="none" xmlns="http://www.w3.org/2000/svg">
<path d="M195.751 42.9181C204.277 45.1495 212.757 47.4357 221.297 49.6051C234.798 53.0512 248.503 55.8916 260.993 62.4361C264.846 64.2991 268.375 66.7687 271.445 69.7507C276.237 74.5815 275.493 80.485 269.158 83.4633C263.905 86.002 258.318 87.7793 252.565 88.7419C236.041 91.4565 219.464 93.2765 202.462 95.5211C203.441 96.2661 204.498 96.9044 205.612 97.4251C219.331 101.902 233.184 106.083 246.755 110.917C251.932 112.882 256.806 115.569 261.231 118.9C270.97 126.05 270.548 136.633 260.335 143.256C256.167 145.653 251.816 147.717 247.322 149.427C245.286 150.328 243.081 150.831 239.314 152.019L247.856 155.169L247.839 155.948C245.631 155.979 243.428 155.744 241.277 155.249C233.483 152.533 225.78 154.085 218.006 155.098C181.048 160.168 143.681 161.577 106.449 159.304C85.9322 157.589 65.6763 153.555 46.0682 147.279C42.9582 146.3 39.9841 144.933 37.2167 143.208C35.9212 142.635 34.8544 141.645 34.1852 140.396C33.516 139.147 33.2827 137.709 33.5225 136.312C33.7563 135.04 34.4047 133.88 35.3663 133.015C36.328 132.15 37.5489 131.628 38.8382 131.53C47.2832 129.901 55.8432 128.941 64.4387 128.66C90.7822 129.543 117.089 130.962 143.359 132.916C165.666 134.426 187.723 138.514 209.088 145.1C213.929 146.61 218.911 147.794 223.845 148.902C225.806 149.418 227.85 149.546 229.861 149.279C238.834 147.596 247.846 145.89 255.822 141.037C257.38 140.184 258.842 139.163 260.18 137.994C265.246 133.024 265.425 127.022 259.531 123.146C252.848 118.547 245.599 114.83 237.966 112.087C222.607 106.937 206.828 102.899 191.212 98.4415C185.822 96.9955 180.204 96.6068 174.666 97.2967C142.444 101.22 109.951 102.452 77.5259 100.981C59.1213 99.8307 40.4969 99.7733 22.5183 94.8023C18.8155 93.9643 15.2175 92.7166 11.7907 91.0822C10.7731 90.4508 9.89815 89.6142 9.2218 88.6256C8.54542 87.6369 8.08252 86.5181 7.86238 85.3404C8.01835 84.2866 8.43615 83.2887 9.07751 82.4382C9.71883 81.5877 10.5631 80.9118 11.5331 80.4725C17.6975 78.2291 24.0663 76.5939 30.5483 75.5902C46.4278 73.9703 62.4234 73.8392 78.3264 75.1984C106.117 77.5707 133.76 81.4394 161.134 86.7878C164.607 87.498 168.037 88.4104 171.404 89.5203C180.578 92.1955 189.503 91.2856 198.564 90.2111C216.41 88.1288 234.311 86.0918 252.283 83.7448C256.802 83.0981 261.207 81.8179 265.37 79.9421C270.605 77.6243 270.921 74.1371 266.105 70.9665C261.677 68.0216 256.897 65.6442 251.877 63.8898C242.291 60.5968 232.55 57.6926 222.754 55.1677C209.966 51.8862 197.09 48.8456 184.145 46.2463C178.958 45.2129 173.631 45.087 168.401 45.8744C137.662 51.066 106.518 53.4678 75.3492 53.0508C62.9251 52.8582 50.4988 52.5345 38.0626 52.5352C27.9015 52.2023 17.8243 50.5762 8.07442 47.6961C6.8087 47.562 5.59933 47.1025 4.56377 46.3623C2.95072 44.585 0.839588 42.5621 0.609302 40.4511C0.483579 39.0175 2.92095 36.3797 4.70901 35.8456C10.9399 33.7439 17.3471 32.2073 23.8529 31.2543C61.8307 26.8015 99.6673 29.1753 137.57 33.524C149.669 34.9807 161.735 36.7236 173.806 38.3043C175.785 38.6763 177.807 38.7697 179.813 38.5818C202.532 34.6206 225.077 29.9987 246.278 20.4605C247.334 19.986 248.278 19.2897 250.093 18.0758C242.3 14.3756 233.929 12.0436 225.345 11.1815C201.864 8.69517 178.356 6.46404 154.87 4.13996C153.686 4.07755 152.522 3.8086 151.43 3.3452C158.053 0.779088 165.165 -0.267393 172.244 0.282963C190.663 2.21995 209.101 3.93277 227.412 6.33485C234.674 7.5779 241.835 9.35267 248.837 11.645C253.008 12.8048 252.958 13.0219 256.427 17.645C255.757 19.6594 254.595 21.4743 253.045 22.9246C251.496 24.375 249.609 25.4147 247.556 25.9492C233.506 30.2479 219.449 34.5777 205.414 38.8143C202.322 39.7656 199.139 40.402 196.021 41.1839L195.751 42.9181ZM38.0299 136.864L38.0387 138.662C41.225 140.503 44.541 142.11 47.9602 143.47C74.0552 151.765 101.254 156.067 128.636 156.233C156.508 156.322 184.365 154.92 212.089 152.032C214.177 151.564 216.228 150.947 218.228 150.184C200.349 146.053 184.48 140.851 168.231 138.99C140.557 135.862 112.648 134.312 84.7585 132.963C71.679 132.358 58.4938 133.623 45.2826 134.294C42.7606 134.82 40.321 135.684 38.0299 136.864ZM161.345 93.5L161.503 91.1195C149.266 89.2716 136.985 87.6098 124.774 85.5067C104.317 82.021 83.6474 79.9183 62.9064 79.213C48.9839 78.3358 35.0063 79.3699 21.363 82.2867C18.967 82.9089 15.8372 82.6103 14.2504 86.2285C24.0336 89.9572 34.2823 92.3254 44.7096 93.2668C70.9097 95.8661 97.2544 96.7161 123.568 95.8109C136.153 95.4524 148.746 94.345 161.331 93.562L161.345 93.5ZM156.383 42.085L156.279 40.1338C138.669 38.5142 121.17 36.6918 103.433 35.3369C77.9629 33.0401 52.3272 33.2651 26.8995 36.0085C19.6612 36.3029 12.5464 37.9854 5.94152 40.9646C15.2293 44.7004 25.0988 46.782 35.1042 47.1155C59.0626 47.4909 83.0108 47.4393 106.949 46.9607C123.525 46.6929 140.052 45.0831 156.369 42.1469L156.383 42.085Z" fill="#1F1F1F" fill-opacity="0.94"/>
</svg>
