<svg width="57" height="57" viewBox="0 0 57 57" fill="none" xmlns="http://www.w3.org/2000/svg">
<path d="M1.8415 24.4286H6.04569V6.97959L13.6549 18.4261H13.7939L21.4726 6.9098V24.4286H25.7463V0H21.1947L13.7939 11.5512L6.39315 0H1.8415V24.4286Z" fill="black"/>
<path d="M32.0062 24.4286H41.0747C48.7187 24.4286 54 19.0892 54 12.2143V12.1445C54 5.26959 48.7187 0 41.0747 0H32.0062V24.4286ZM41.0747 3.90857C46.1823 3.90857 49.5178 7.43327 49.5178 12.2143V12.2841C49.5178 17.0651 46.1823 20.52 41.0747 20.52H36.2799V3.90857H41.0747Z" fill="black"/>
<path d="M17.5117 32.5714L11.3965 41.4006L5.38553 32.5714H0.347454L8.79058 44.5763L0 57H4.8991L11.2922 47.6822L17.7201 57H22.7582L13.9329 44.5065L22.4108 32.5714H17.5117Z" fill="black"/>
</svg>
